<svg width="18" height="16" viewBox="0 0 18 16" fill="none" xmlns="http://www.w3.org/2000/svg">
<path fill-rule="evenodd" clip-rule="evenodd" d="M14.4116 1.1675C16.1574 2.185 17.3857 4.25083 17.3316 6.66083C17.2641 9.66916 14.9232 12.3225 10.9324 14.6925C10.3407 15.0442 9.71739 15.5 8.99989 15.5C8.29573 15.5 7.64573 15.0358 7.06656 14.6917C3.07739 12.3225 0.735727 9.66833 0.668227 6.66083C0.61406 4.25083 1.84239 2.18583 3.58823 1.1675C5.22156 0.216664 7.27323 0.210831 8.99989 1.615C10.7266 0.210831 12.7782 0.215831 14.4116 1.1675ZM13.5724 2.60833C12.4107 1.93166 10.9591 1.95583 9.70239 3.2275C9.61026 3.31997 9.50078 3.39334 9.38023 3.4434C9.25968 3.49347 9.13043 3.51924 8.99989 3.51924C8.86936 3.51924 8.74011 3.49347 8.61956 3.4434C8.49901 3.39334 8.38952 3.31997 8.29739 3.2275C7.04073 1.95583 5.58906 1.93166 4.42739 2.60833C3.22406 3.31 2.29406 4.79833 2.33489 6.625C2.38156 8.7175 4.03489 10.9533 7.91823 13.26C8.25823 13.4625 8.61323 13.7217 8.99989 13.8292C9.38656 13.7217 9.74156 13.4625 10.0816 13.26C13.9649 10.9533 15.6182 8.71833 15.6649 6.62416C15.7066 4.79916 14.7757 3.31 13.5724 2.60833Z" fill="black"/>
</svg>
