<svg width="18" height="16" viewBox="0 0 18 16" fill="none" xmlns="http://www.w3.org/2000/svg">
<path d="M14.0001 5.33333C14.6416 5.33329 15.2695 5.51838 15.8085 5.86639C16.3474 6.21439 16.7745 6.71053 17.0384 7.29525C17.3024 7.87996 17.392 8.52843 17.2965 9.16281C17.201 9.7972 16.9245 10.3905 16.5001 10.8717V14.365C16.5001 14.5213 16.4602 14.6749 16.3841 14.8114C16.308 14.9479 16.1983 15.0627 16.0654 15.1449C15.9324 15.227 15.7807 15.2739 15.6246 15.2809C15.4685 15.2879 15.3132 15.2549 15.1734 15.185L14.0001 14.5983L12.8267 15.185C12.687 15.2549 12.5317 15.2879 12.3756 15.2809C12.2194 15.2739 12.0677 15.227 11.9348 15.1449C11.8019 15.0627 11.6922 14.9479 11.6161 14.8114C11.54 14.6749 11.5001 14.5213 11.5001 14.365V10.8717C11.0757 10.3905 10.7992 9.7972 10.7037 9.16281C10.6082 8.52843 10.6978 7.87996 10.9618 7.29525C11.2257 6.71053 11.6528 6.21439 12.1917 5.86639C12.7306 5.51838 13.3586 5.33329 14.0001 5.33333ZM15.6667 0.333328C16.1088 0.333328 16.5327 0.508923 16.8453 0.821484C17.1578 1.13404 17.3334 1.55797 17.3334 2V3.66666C17.3334 3.88768 17.2456 4.09964 17.0893 4.25592C16.9331 4.4122 16.7211 4.5 16.5001 4.5C16.2791 4.5 16.0671 4.4122 15.9108 4.25592C15.7545 4.09964 15.6667 3.88768 15.6667 3.66666V2H2.33341V12H9.00008C9.2211 12 9.43306 12.0878 9.58934 12.2441C9.74562 12.4004 9.83341 12.6123 9.83341 12.8333C9.83341 13.0543 9.74562 13.2663 9.58934 13.4226C9.43306 13.5789 9.2211 13.6667 9.00008 13.6667H2.33341C1.89139 13.6667 1.46746 13.4911 1.1549 13.1785C0.842343 12.8659 0.666748 12.442 0.666748 12V2C0.666748 1.55797 0.842343 1.13404 1.1549 0.821484C1.46746 0.508923 1.89139 0.333328 2.33341 0.333328H15.6667ZM14.8334 11.895C14.2868 12.0361 13.7133 12.0361 13.1667 11.895V13.1517L13.6276 12.9217C13.7432 12.8639 13.8708 12.8338 14.0001 12.8338C14.1294 12.8338 14.2569 12.8639 14.3726 12.9217L14.8334 13.1517V11.895ZM14.0001 7C13.5581 7 13.1341 7.17559 12.8216 7.48815C12.509 7.80071 12.3334 8.22464 12.3334 8.66666C12.3334 9.10869 12.509 9.53261 12.8216 9.84517C13.1341 10.1577 13.5581 10.3333 14.0001 10.3333C14.4421 10.3333 14.866 10.1577 15.1786 9.84517C15.4912 9.53261 15.6667 9.10869 15.6667 8.66666C15.6667 8.22464 15.4912 7.80071 15.1786 7.48815C14.866 7.17559 14.4421 7 14.0001 7ZM6.50008 7.83333C6.71248 7.83356 6.91677 7.9149 7.07122 8.0607C7.22567 8.20651 7.31861 8.40579 7.33106 8.61782C7.34351 8.82986 7.27452 9.03865 7.13819 9.20152C7.00187 9.3644 6.80849 9.46908 6.59758 9.49416L6.50008 9.5H4.83341C4.62101 9.49976 4.41672 9.41843 4.26227 9.27262C4.10783 9.12681 4.01489 8.92754 4.00244 8.7155C3.98999 8.50347 4.05898 8.29468 4.1953 8.1318C4.33163 7.96892 4.525 7.86425 4.73591 7.83916L4.83341 7.83333H6.50008ZM9.83341 4.5C10.0544 4.5 10.2664 4.58779 10.4227 4.74407C10.5789 4.90035 10.6667 5.11232 10.6667 5.33333C10.6667 5.55434 10.5789 5.7663 10.4227 5.92258C10.2664 6.07886 10.0544 6.16666 9.83341 6.16666H4.83341C4.6124 6.16666 4.40044 6.07886 4.24416 5.92258C4.08788 5.7663 4.00008 5.55434 4.00008 5.33333C4.00008 5.11232 4.08788 4.90035 4.24416 4.74407C4.40044 4.58779 4.6124 4.5 4.83341 4.5H9.83341Z" fill="black"/>
</svg>
